<svg width="164" height="150" viewBox="0 0 164 150" fill="none" xmlns="http://www.w3.org/2000/svg">
<path d="M163.11 32.9583V117.042C163.11 124.21 158.268 130.506 151.327 132.351L88.6978 149.064C86.359 149.684 83.957 150 81.555 150C79.153 150 76.7257 149.684 74.3995 149.064L11.7699 132.351C4.84197 130.506 0 124.21 0 117.042V32.9583C0 25.7901 4.84197 19.4817 11.7699 17.6359L74.3868 0.935525C76.7257 0.316056 79.1277 0 81.5424 0C83.957 0 86.359 0.316056 88.6852 0.935525L151.315 17.6359C158.243 19.4817 163.097 25.7901 163.097 32.9583H163.11ZM155.183 117.042V32.9583C155.183 29.3679 152.756 26.22 149.292 25.2845L86.6624 8.58407C83.3249 7.68647 79.7851 7.68647 76.4475 8.58407L13.7927 25.3097C10.3287 26.2326 7.91403 29.3805 7.91403 32.9709V117.054C7.91403 120.632 10.3287 123.78 13.7927 124.716L76.4349 141.429C78.1037 141.871 79.823 142.099 81.5424 142.099C83.2617 142.099 84.9684 141.871 86.6498 141.429L149.279 124.716C152.743 123.793 155.171 120.632 155.171 117.054L155.183 117.042Z" fill="#1E293B"/>
<path d="M146.119 33.8322V116.184L86.0807 132.189V17.8145L146.119 33.8322Z" fill="#F43F5E"/>
<path d="M77.0163 110.517V132.186L16.9784 116.181V102.502L77.0163 110.517Z" fill="#1E293B"/>
<path d="M77.0163 79.5332V101.366L16.9784 93.3638V79.5332H77.0163Z" fill="#1E293B"/>
<path d="M77.0163 48.6475V70.4679H16.9784V56.65L77.0163 48.6475Z" fill="#1E293B"/>
<path d="M77.0163 17.8145V39.4959L16.9784 47.4984V33.8322L77.0163 17.8145Z" fill="#1E293B"/>
<path d="M149.292 25.2984L86.6626 8.598C83.3251 7.70041 79.7852 7.70041 76.4477 8.598L13.7928 25.311C10.3288 26.2339 7.91418 29.3818 7.91418 32.9722V117.056C7.91418 120.633 10.3288 123.781 13.7928 124.717L76.435 141.43C78.1038 141.872 79.8232 142.1 81.5425 142.1C83.2618 142.1 84.9686 141.872 86.65 141.43L149.28 124.717C152.744 123.794 155.171 120.633 155.171 117.056V32.9596C155.171 29.3692 152.744 26.2213 149.28 25.2857L149.292 25.2984ZM146.119 116.183L86.0811 132.188V17.8142L146.119 33.8319V116.171V116.183ZM77.0166 79.5335V101.379L16.9787 93.3768V79.5462H77.0166V79.5335ZM16.9787 70.4691V56.6511L77.0166 48.6486V70.4817H16.9787V70.4691ZM77.0166 110.507V132.176L16.9787 116.171V102.504L77.0166 110.507ZM77.0166 39.4956L16.9787 47.4981V33.8319L77.0166 17.8142V39.4956Z" fill="white"/>
</svg>
