<svg width="400" height="107" viewBox="0 0 400 107" fill="none" xmlns="http://www.w3.org/2000/svg">
<path d="M189.322 27.4434V35.7865H175.596V78.9517H165.265V35.7865H151.539V27.4434H189.322Z" fill="white"/>
<path d="M195.702 31.4733C194.495 30.3187 193.896 28.8775 193.896 27.1586C193.896 25.4396 194.495 23.9984 195.702 22.8438C196.909 21.6891 198.419 21.1074 200.242 21.1074C202.065 21.1074 203.576 21.6891 204.783 22.8438C205.99 23.9984 206.589 25.4396 206.589 27.1586C206.589 28.8775 205.99 30.3187 204.783 31.4733C203.576 32.628 202.065 33.2097 200.242 33.2097C198.419 33.2097 196.909 32.628 195.702 31.4733ZM205.33 38.0801V78.9621H194.999V38.0801H205.33Z" fill="white"/>
<path d="M224.005 24.3457V78.9534H213.674V24.3457H224.005Z" fill="white"/>
<path d="M270.052 61.6127H240.17C240.413 64.5645 241.446 66.8738 243.269 68.5493C245.092 70.2249 247.332 71.0583 249.989 71.0583C253.826 71.0583 256.552 69.4088 258.184 66.1098H269.323C268.142 70.0426 265.876 73.2808 262.534 75.8159C259.191 78.3509 255.085 79.6185 250.214 79.6185C246.282 79.6185 242.748 78.7503 239.623 76.9966C236.497 75.2516 234.066 72.7773 232.313 69.5825C230.568 66.3876 229.691 62.6979 229.691 58.5133C229.691 54.3288 230.55 50.5696 232.269 47.3747C233.988 44.1799 236.402 41.7143 239.501 39.9953C242.601 38.2764 246.169 37.4082 250.206 37.4082C254.243 37.4082 257.576 38.2416 260.65 39.9172C263.723 41.5927 266.11 43.9628 267.812 47.0361C269.514 50.1095 270.356 53.6429 270.356 57.6278C270.356 59.1037 270.26 60.432 270.061 61.6127H270.052ZM259.651 54.676C259.599 52.0194 258.644 49.8924 256.778 48.295C254.911 46.6976 252.619 45.8988 249.919 45.8988C247.358 45.8988 245.205 46.6715 243.46 48.2255C241.715 49.7795 240.647 51.9239 240.248 54.6847H259.651V54.676Z" fill="white"/>
<path d="M291.853 39.2513C294.188 38.0185 296.862 37.4108 299.857 37.4108C303.347 37.4108 306.507 38.2702 309.337 39.9979C312.168 41.7169 314.408 44.1651 316.048 47.3426C317.698 50.5201 318.523 54.1924 318.523 58.377C318.523 62.5615 317.698 66.26 316.048 69.4808C314.399 72.7017 312.159 75.202 309.337 76.9731C306.507 78.7441 303.347 79.6297 299.857 79.6297C296.81 79.6297 294.136 79.0307 291.853 77.8239C289.561 76.6172 287.729 75.0544 286.357 73.1358V78.9612H276.026V24.3535H286.357V44.0609C287.685 42.0902 289.517 40.4928 291.853 39.26V39.2513ZM306.464 51.9786C305.457 50.1815 304.128 48.8185 302.479 47.8809C300.829 46.9432 299.05 46.4744 297.131 46.4744C295.212 46.4744 293.502 46.9519 291.853 47.9156C290.203 48.8706 288.875 50.2683 287.868 52.0828C286.861 53.9059 286.357 56.0416 286.357 58.5072C286.357 60.9728 286.861 63.1085 287.868 64.923C288.875 66.7461 290.203 68.1352 291.853 69.0902C293.502 70.0538 295.256 70.5313 297.131 70.5313C299.006 70.5313 300.829 70.0364 302.479 69.0554C304.128 68.0744 305.457 66.668 306.464 64.8448C307.471 63.0217 307.974 60.8599 307.974 58.3509C307.974 55.8419 307.471 53.767 306.464 51.9699V51.9786Z" fill="white"/>
<path d="M331.744 76.9966C328.593 75.2516 326.127 72.7773 324.33 69.5825C322.533 66.3876 321.639 62.6979 321.639 58.5133C321.639 54.3288 322.559 50.6391 324.408 47.4442C326.249 44.2494 328.775 41.775 331.97 40.03C335.165 38.285 338.733 37.4082 342.674 37.4082C346.616 37.4082 350.175 38.285 353.37 40.03C356.565 41.775 359.091 44.2494 360.932 47.4442C362.772 50.6391 363.701 54.3288 363.701 58.5133C363.701 62.6979 362.755 66.3876 360.862 69.5825C358.97 72.7773 356.409 75.2516 353.188 76.9966C349.967 78.7416 346.364 79.6185 342.379 79.6185C338.394 79.6185 334.904 78.7503 331.753 76.9966H331.744ZM347.649 69.2525C349.298 68.341 350.609 66.9779 351.599 65.1548C352.58 63.3316 353.075 61.1178 353.075 58.5133C353.075 54.6239 352.05 51.6374 350.01 49.5452C347.97 47.4529 345.47 46.4111 342.518 46.4111C339.566 46.4111 337.092 47.4616 335.104 49.5452C333.116 51.6374 332.117 54.6239 332.117 58.5133C332.117 62.4027 333.09 65.3892 335.034 67.4815C336.979 69.5737 339.427 70.6156 342.379 70.6156C344.246 70.6156 346.008 70.1641 347.658 69.2525H347.649Z" fill="white"/>
<path d="M388.34 78.9523L379.928 66.2597L372.479 78.9523H361.41L374.762 58.4375L361.262 38.0703H372.922L381.256 50.6935L388.783 38.0703H399.852L386.422 58.4375L400 78.9523H388.34Z" fill="white"/>
<path d="M104.266 19.1105C106.645 19.7442 108.312 21.9147 108.312 24.3803V82.122C108.312 84.5789 106.645 86.7407 104.266 87.3744L61.2572 98.8516C60.1025 99.1554 58.9218 99.3117 57.7411 99.3117C56.5604 99.3117 55.3797 99.1554 54.2337 98.8516L11.2161 87.3744C8.83731 86.7407 7.17912 84.5789 7.17912 82.122V24.3803C7.17912 21.9147 8.83731 19.7443 11.2161 19.1192L54.2337 7.64199C56.5344 7.02559 58.9566 7.02559 61.2572 7.64199L104.266 19.1105ZM102.087 81.523V24.9793L60.8579 13.9796V92.514L102.087 81.523ZM54.6331 92.514V77.6336L13.4039 72.1294V81.523L54.6331 92.514ZM54.6331 71.3567V56.3548H13.4039V65.8525L54.6331 71.3567ZM54.6331 50.1301V35.1455L13.4039 40.641V50.1301H54.6331ZM54.6331 28.8687V13.9796L13.4039 24.9793V34.3555L54.6331 28.8687Z" fill="white"/>
<path d="M113.756 82.1199V24.3781C113.756 19.4469 110.422 15.1148 105.665 13.8473L62.6556 2.38746C61.0495 1.95337 59.4 1.73633 57.7418 1.73633C56.0836 1.73633 54.434 1.95337 52.8279 2.38746L9.81897 13.8473C5.06141 15.1148 1.73633 19.4469 1.73633 24.3781V82.1199C1.73633 87.0424 5.06141 91.3659 9.81897 92.6334L52.8279 104.111C54.434 104.536 56.0922 104.753 57.7418 104.753C59.3913 104.753 61.0495 104.536 62.6556 104.111L105.665 92.6334C110.422 91.3659 113.756 87.0424 113.756 82.1199ZM106.107 12.1717C111.638 13.6389 115.492 18.6569 115.492 24.3781V82.1199C115.492 87.8238 111.638 92.8417 106.116 94.3089L63.107 105.786C61.3533 106.255 59.5475 106.489 57.7418 106.489C55.936 106.489 54.1302 106.255 52.3852 105.786L9.3762 94.3089C3.85466 92.8417 0 87.8324 0 82.1199V24.3781C0 18.6569 3.85466 13.6389 9.3762 12.1717L52.3852 0.703213C54.1302 0.234403 55.936 0 57.7418 0C59.5475 0 61.3533 0.234403 63.0983 0.703213L106.107 12.1717Z" fill="white"/>
</svg>
