<svg width="400" height="104" viewBox="0 0 400 104" fill="none" xmlns="http://www.w3.org/2000/svg">
<path d="M188.4 25.8086V34.1882H174.614V77.5424H164.238V34.1882H150.452V25.8086H188.4Z" fill="#1E293B"/>
<path d="M194.808 29.8527C193.596 28.693 192.994 27.2455 192.994 25.519C192.994 23.7925 193.596 22.3451 194.808 21.1853C196.02 20.0256 197.537 19.4414 199.368 19.4414C201.199 19.4414 202.717 20.0256 203.929 21.1853C205.141 22.3451 205.742 23.7925 205.742 25.519C205.742 27.2455 205.141 28.693 203.929 29.8527C202.717 31.0124 201.199 31.5966 199.368 31.5966C197.537 31.5966 196.02 31.0124 194.808 29.8527ZM204.478 36.4883V77.5492H194.102V36.4883H204.478Z" fill="#1E293B"/>
<path d="M223.235 22.6953V77.542H212.859V22.6953H223.235Z" fill="#1E293B"/>
<path d="M269.483 60.1288H239.47C239.714 63.0935 240.752 65.4129 242.583 67.0958C244.414 68.7787 246.664 69.6158 249.332 69.6158C253.186 69.6158 255.924 67.959 257.564 64.6456H268.751C267.565 68.5956 265.289 71.848 261.932 74.3942C258.575 76.9403 254.451 78.2134 249.559 78.2134C245.609 78.2134 242.06 77.3414 238.921 75.58C235.782 73.8274 233.34 71.3423 231.579 68.1334C229.826 64.9246 228.946 61.2187 228.946 57.0159C228.946 52.813 229.809 49.0374 231.535 45.8285C233.262 42.6197 235.686 40.1433 238.799 38.4168C241.912 36.6903 245.496 35.8184 249.55 35.8184C253.605 35.8184 256.953 36.6554 260.04 38.3383C263.127 40.0212 265.525 42.4017 267.234 45.4885C268.943 48.5752 269.789 52.1241 269.789 56.1265C269.789 57.6088 269.693 58.9429 269.492 60.1288H269.483ZM259.037 53.1618C258.985 50.4936 258.026 48.3572 256.151 46.7528C254.276 45.1484 251.974 44.3462 249.263 44.3462C246.69 44.3462 244.528 45.1222 242.775 46.6831C241.022 48.2439 239.95 50.3976 239.549 53.1705H259.037V53.1618Z" fill="#1E293B"/>
<path d="M291.38 37.667C293.725 36.4289 296.411 35.8185 299.419 35.8185C302.924 35.8185 306.098 36.6817 308.941 38.4169C311.784 40.1434 314.033 42.6024 315.681 45.7938C317.338 48.9852 318.166 52.6736 318.166 56.8765C318.166 61.0793 317.338 64.7939 315.681 68.0289C314.025 71.2639 311.775 73.7752 308.941 75.554C306.098 77.3328 302.924 78.2222 299.419 78.2222C296.358 78.2222 293.673 77.6205 291.38 76.4085C289.078 75.1965 287.238 73.6269 285.86 71.6999V77.5508H275.484V22.7041H285.86V42.4977C287.194 40.5184 289.034 38.914 291.38 37.6758V37.667ZM306.055 50.4501C305.043 48.6451 303.709 47.2761 302.052 46.3344C300.396 45.3927 298.608 44.9218 296.681 44.9218C294.754 44.9218 293.036 45.4014 291.38 46.3693C289.723 47.3284 288.389 48.7323 287.377 50.5547C286.366 52.3858 285.86 54.5309 285.86 57.0073C285.86 59.4836 286.366 61.6287 287.377 63.4511C288.389 65.2822 289.723 66.6774 291.38 67.6365C293.036 68.6044 294.798 69.084 296.681 69.084C298.565 69.084 300.396 68.587 302.052 67.6016C303.709 66.6163 305.043 65.2037 306.055 63.3726C307.066 61.5415 307.572 59.3703 307.572 56.8503C307.572 54.3303 307.066 52.2463 306.055 50.4413V50.4501Z" fill="#1E293B"/>
<path d="M331.446 75.58C328.281 73.8274 325.804 71.3423 323.999 68.1334C322.194 64.9246 321.296 61.2187 321.296 57.0159C321.296 52.813 322.22 49.1071 324.078 45.8983C325.926 42.6895 328.464 40.2043 331.672 38.4517C334.881 36.699 338.465 35.8184 342.424 35.8184C346.383 35.8184 349.958 36.699 353.166 38.4517C356.375 40.2043 358.913 42.6895 360.761 45.8983C362.61 49.1071 363.543 52.813 363.543 57.0159C363.543 61.2187 362.592 64.9246 360.692 68.1334C358.791 71.3423 356.218 73.8274 352.983 75.58C349.748 77.3327 346.13 78.2134 342.127 78.2134C338.125 78.2134 334.62 77.3414 331.454 75.58H331.446ZM347.42 67.8021C349.077 66.8865 350.394 65.5175 351.388 63.6864C352.373 61.8553 352.87 59.6318 352.87 57.0159C352.87 53.1094 351.841 50.1099 349.792 48.0084C347.743 45.907 345.232 44.8607 342.267 44.8607C339.302 44.8607 336.817 45.9157 334.82 48.0084C332.823 50.1099 331.821 53.1094 331.821 57.0159C331.821 60.9223 332.797 63.9218 334.751 66.0233C336.704 68.1247 339.163 69.1711 342.127 69.1711C344.002 69.1711 345.772 68.7176 347.429 67.8021H347.42Z" fill="#1E293B"/>
<path d="M388.29 77.5433L379.84 64.7952L372.359 77.5433H361.241L374.652 56.9388L361.093 36.4824H372.803L381.174 49.1608L388.734 36.4824H399.852L386.363 56.9388L400 77.5433H388.29Z" fill="#1E293B"/>
<path d="M112.501 22.7322V80.7267C112.501 85.6707 109.161 90.0131 104.374 91.2862L61.1772 102.814C59.564 103.241 57.9073 103.459 56.2505 103.459C54.5938 103.459 52.9196 103.241 51.3152 102.814L8.11801 91.2862C3.33963 90.0131 0 85.6707 0 80.7267V22.7322C0 17.7881 3.33963 13.437 8.11801 12.1639L51.3152 0.645257C52.9284 0.217993 54.5851 0 56.2505 0C57.916 0 59.5727 0.217993 61.1772 0.645257L104.374 12.1639C109.153 13.437 112.501 17.7881 112.501 22.7322ZM107.034 80.7267V22.7322C107.034 20.2558 105.36 18.0846 102.971 17.4393L59.7733 5.92065C57.4713 5.30156 55.0298 5.30156 52.7278 5.92065L9.52187 17.448C7.13268 18.0846 5.46723 20.2558 5.46723 22.7322V80.7267C5.46723 83.1943 7.13268 85.3655 9.52187 86.0108L52.7278 97.5382C53.8788 97.8434 55.0647 98.0003 56.2505 98.0003C57.4364 98.0003 58.6136 97.8434 59.7733 97.5382L102.971 86.0108C105.36 85.3742 107.034 83.1943 107.034 80.7267Z" fill="#1E293B"/>
<path d="M100.785 23.3339V80.1251L59.3754 91.1642V12.2861L100.785 23.3339Z" fill="#F43F5E"/>
<path d="M53.1234 76.2187V91.1642L11.7137 80.1251V70.6904L53.1234 76.2187Z" fill="#1E293B"/>
<path d="M53.1234 54.8447V69.9123L11.7137 64.384V54.8447H53.1234Z" fill="#1E293B"/>
<path d="M53.1234 33.543V48.5931H11.7137V39.0625L53.1234 33.543Z" fill="#1E293B"/>
<path d="M53.1234 12.2861V27.2403L11.7137 32.7512V23.3339L53.1234 12.2861Z" fill="#1E293B"/>
<path d="M102.974 17.4391L59.7764 5.92038C57.4744 5.30128 55.0329 5.30128 52.7309 5.92038L9.52496 17.4478C7.13577 18.0843 5.47031 20.2555 5.47031 22.7319V80.7264C5.47031 83.194 7.13577 85.3652 9.52496 86.0105L52.7309 97.5379C53.8819 97.8431 55.0678 98 56.2536 98C57.4395 98 58.6167 97.8431 59.7764 97.5379L102.974 86.0105C105.363 85.374 107.037 83.194 107.037 80.7264V22.7319C107.037 20.2555 105.363 18.0843 102.974 17.4391ZM100.785 80.1247L59.3753 91.1638V12.2857L100.785 23.3335V80.1247ZM53.1233 54.8464V69.914L11.7136 64.3944V54.8551H53.1233V54.8464ZM11.7136 48.5944V39.0638L53.1233 33.5443V48.6031H11.7136V48.5944ZM53.1233 76.2096V91.1551L11.7136 80.116V70.69L53.1233 76.2096ZM53.1233 27.2312L11.7136 32.7508V23.3248L53.1233 12.277V27.2312Z" fill="white"/>
</svg>
