<?xml version="1.0" encoding="utf-8"?>
<svg viewBox="0 -85 1080 400" width="1080px" height="400px" xmlns="http://www.w3.org/2000/svg" xmlns:bx="https://boxy-svg.com">
  <rect y="-85" width="1080" height="400" style="fill: rgb(244, 63, 94);"/>
  <g transform="matrix(1, 0, 0, 1, 540, 200)" id="b7b9bc4f-d054-4c44-b4cd-487169b77d77"/>
  <g id="94d0b0e0-9b32-47f3-9680-f12473c49186"/>
  <path d="M 851.384 -104.711 Q 961.884 -139.653 1072.384 -104.711 L 1465.271 19.527 Q 1575.77 54.47 1575.77 124.354 L 1575.77 372.83 Q 1575.77 442.714 1465.271 477.657 L 1072.384 601.895 Q 961.884 636.837 851.384 601.895 L 458.497 477.657 Q 347.998 442.715 347.998 372.83 L 347.998 124.354 Q 347.998 54.469 458.497 19.527 Z" style="fill: rgb(233, 60, 90);" bx:shape="n-gon 961.884 248.592 708.855 388.245 6 0.18 1@bd6f51f1"/>
  <path d="M 882.525 5.723 Q 968.652 -21.126 1054.779 5.723 L 1361.008 101.186 Q 1447.134 128.036 1447.134 181.734 L 1447.134 372.66 Q 1447.134 426.358 1361.008 453.208 L 1054.779 548.671 Q 968.652 575.52 882.525 548.671 L 576.296 453.208 Q 490.17 426.359 490.17 372.66 L 490.17 181.734 Q 490.17 128.035 576.296 101.186 Z" style="fill: rgb(223, 57, 87);" bx:shape="n-gon 968.652 277.197 552.504 298.323 6 0.18 1@afb44d5e"/>
  <path d="M 937.443 117.222 Q 993.469 96.473 1049.495 117.222 L 1248.7 190.995 Q 1304.726 211.744 1304.726 253.242 L 1304.726 400.788 Q 1304.726 442.286 1248.7 463.035 L 1049.495 536.808 Q 993.469 557.557 937.443 536.808 L 738.238 463.035 Q 682.212 442.286 682.212 400.788 L 682.212 253.242 Q 682.212 211.744 738.238 190.995 Z" style="fill: rgb(213, 55, 84);" bx:shape="n-gon 993.469 327.015 359.409 230.542 6 0.18 1@d8f45b09"/>
  <g transform="matrix(0.2900000214576721, 0, 0, 0.2900000214576721, 137.20556640625, 27.868358612060547)" id="5224a9cf-3890-4f7c-a261-a40ec4b6ca8d">
    <path style="stroke: rgb(0,0,0); stroke-width: 0; stroke-dasharray: none; stroke-linecap: butt; stroke-dashoffset: 0; stroke-linejoin: miter; stroke-miterlimit: 4; fill: rgb(255,255,255); fill-rule: nonzero; opacity: 1;" vector-effect="non-scaling-stroke" transform=" translate(-320, -256)" d="M 256 64 L 384 64 L 384 128 L 256 128 L 256 64 z M 240 0 C 213.5 0 192 21.5 192 48 L 192 144 C 192 170.5 213.5 192 240 192 L 288 192 L 288 224 L 32 224 C 14.3 224 0 238.3 0 256 C 0 273.7 14.3 288 32 288 L 128 288 L 128 320 L 80 320 C 53.5 320 32 341.5 32 368 L 32 464 C 32 490.5 53.5 512 80 512 L 240 512 C 266.5 512 288 490.5 288 464 L 288 368 C 288 341.5 266.5 320 240 320 L 192 320 L 192 288 L 448 288 L 448 320 L 400 320 C 373.5 320 352 341.5 352 368 L 352 464 C 352 490.5 373.5 512 400 512 L 560 512 C 586.5 512 608 490.5 608 464 L 608 368 C 608 341.5 586.5 320 560 320 L 512 320 L 512 288 L 608 288 C 625.7 288 640 273.7 640 256 C 640 238.3 625.7 224 608 224 L 352 224 L 352 192 L 400 192 C 426.5 192 448 170.5 448 144 L 448 48 C 448 21.5 426.5 0 400 0 L 240 0 z M 96 448 L 96 384 L 224 384 L 224 448 L 96 448 z M 416 384 L 544 384 L 544 448 L 416 448 L 416 384 z" stroke-linecap="round"/>
  </g>
</svg>
