<?xml version="1.0" encoding="utf-8"?>
<svg viewBox="0 -85 1080 400" width="1080px" height="400px" xmlns="http://www.w3.org/2000/svg" xmlns:bx="https://boxy-svg.com">
  <rect y="-85" width="1080" height="400" style="fill: rgb(244, 63, 94);"/>
  <g transform="matrix(1, 0, 0, 1, 540, 200)" id="b7b9bc4f-d054-4c44-b4cd-487169b77d77"/>
  <g id="94d0b0e0-9b32-47f3-9680-f12473c49186"/>
  <g transform="matrix(0.33000001311302185, 0, 0, 0.33000001311302185, 135.82000732421875, 35.5099983215332)" id="032590e4-3d84-4119-b54d-4b73bebab39d">
    <path style="stroke: rgb(0, 0, 0); stroke-width: 0; stroke-dasharray: none; stroke-linecap: butt; stroke-dashoffset: 0; stroke-linejoin: miter; stroke-miterlimit: 4; fill-rule: nonzero; opacity: 1; fill: rgb(255, 255, 255);" vector-effect="non-scaling-stroke" transform=" translate(-224, -256)" d="M 448 80 L 448 128 C 448 172.2 347.7 208 224 208 C 100.30000000000001 208 0 172.2 0 128 L 0 80 C 0 35.8 100.3 0 224 0 C 347.7 0 448 35.8 448 80 z M 393.2 214.7 C 414 207.29999999999998 433.09999999999997 197.79999999999998 448 186.1 L 448 288 C 448 332.2 347.7 368 224 368 C 100.30000000000001 368 0 332.2 0 288 L 0 186.1 C 14.9 197.9 34 207.29999999999998 54.8 214.7 C 99.7 230.7 159.5 240 224 240 C 288.5 240 348.3 230.7 393.2 214.7 z M 0 346.1 C 14.9 357.90000000000003 34 367.3 54.8 374.70000000000005 C 99.7 390.7 159.5 400 224 400 C 288.5 400 348.3 390.7 393.2 374.7 C 414 367.3 433.09999999999997 357.8 448 346.09999999999997 L 448 432 C 448 476.2 347.7 512 224 512 C 100.30000000000001 512 0 476.2 0 432 L 0 346.1 z" stroke-linecap="round"/>
  </g>
  <path d="M 851.384 -104.711 Q 961.884 -139.653 1072.384 -104.711 L 1465.271 19.527 Q 1575.77 54.47 1575.77 124.354 L 1575.77 372.83 Q 1575.77 442.714 1465.271 477.657 L 1072.384 601.895 Q 961.884 636.837 851.384 601.895 L 458.497 477.657 Q 347.998 442.715 347.998 372.83 L 347.998 124.354 Q 347.998 54.469 458.497 19.527 Z" style="fill: rgb(233, 60, 90);" bx:shape="n-gon 961.884 248.592 708.855 388.245 6 0.18 1@bd6f51f1"/>
  <path d="M 882.525 5.723 Q 968.652 -21.126 1054.779 5.723 L 1361.008 101.186 Q 1447.134 128.036 1447.134 181.734 L 1447.134 372.66 Q 1447.134 426.358 1361.008 453.208 L 1054.779 548.671 Q 968.652 575.52 882.525 548.671 L 576.296 453.208 Q 490.17 426.359 490.17 372.66 L 490.17 181.734 Q 490.17 128.035 576.296 101.186 Z" style="fill: rgb(223, 57, 87);" bx:shape="n-gon 968.652 277.197 552.504 298.323 6 0.18 1@afb44d5e"/>
  <path d="M 937.443 117.222 Q 993.469 96.473 1049.495 117.222 L 1248.7 190.995 Q 1304.726 211.744 1304.726 253.242 L 1304.726 400.788 Q 1304.726 442.286 1248.7 463.035 L 1049.495 536.808 Q 993.469 557.557 937.443 536.808 L 738.238 463.035 Q 682.212 442.286 682.212 400.788 L 682.212 253.242 Q 682.212 211.744 738.238 190.995 Z" style="fill: rgb(213, 55, 84);" bx:shape="n-gon 993.469 327.015 359.409 230.542 6 0.18 1@d8f45b09"/>
</svg>
