<svg width="1080" height="560" xmlns="http://www.w3.org/2000/svg">
 <g>
  <title>Layer 1</title>
  <rect y="-2.02297" width="1081.99994" height="564.99999" fill=" rgb(244, 63, 94)" id="svg_1" x="-0.99994"/>
  <g transform="matrix(1, 0, 0, 1, 540, 200)" id="b7b9bc4f-d054-4c44-b4cd-487169b77d77"/>
  <g id="94d0b0e0-9b32-47f3-9680-f12473c49186"/>
  <path d="m850.384,-17.73399q110.5,-34.942 221,0l392.887,124.238q110.499,34.943 110.499,104.827l0,248.476q0,69.884 -110.499,104.827l-392.887,124.238q-110.5,34.942 -221,0l-392.887,-124.238q-110.499,-34.942 -110.499,-104.827l0,-248.476q0,-69.885 110.499,-104.827l392.887,-124.238z" fill=" rgb(233, 60, 90)" id="svg_3"/>
  <path d="m882.525,91.70001q86.127,-26.849 172.254,0l306.229,95.463q86.126,26.85 86.126,80.548l0,190.926q0,53.698 -86.126,80.548l-306.229,95.463q-86.127,26.849 -172.254,0l-306.229,-95.463q-86.126,-26.849 -86.126,-80.548l0,-190.926q0,-53.699 86.126,-80.548l306.229,-95.463z" fill=" rgb(223, 57, 87)" id="svg_4"/>
  <path d="m937.443,203.19901q56.026,-20.749 112.052,0l199.205,73.773q56.026,20.749 56.026,62.247l0,147.546q0,41.498 -56.026,62.247l-199.205,73.773q-56.026,20.749 -112.052,0l-199.205,-73.773q-56.026,-20.749 -56.026,-62.247l0,-147.546q0,-41.498 56.026,-62.247l199.205,-73.773z" fill=" rgb(213, 55, 84)" id="svg_5"/>
  <g id="svg_2">
   <g id="svg_6" stroke-linecap="round" fill-rule="evenodd" font-size="9pt" stroke="#ffffff" stroke-width="0" fill="none">
    <path id="svg_7" d="m1202,187.20047l0,65l-28,0l0,-61.2a42.32,42.32 0 0 0 -0.694,-7.918q-1.446,-7.584 -5.906,-12.382a21.778,21.778 0 0 0 -12.6,-6.656a31.483,31.483 0 0 0 -5.4,-0.444a30.639,30.639 0 0 0 -7.705,0.917a21.753,21.753 0 0 0 -10.595,6.183a22.996,22.996 0 0 0 -5.228,9.265q-1.472,4.847 -1.472,11.035l0,61.2l-28,0l0,-148l28,0l0,51a35.515,35.515 0 0 1 11.413,-9.799a43.145,43.145 0 0 1 2.987,-1.501a45.898,45.898 0 0 1 15.118,-3.89a55.628,55.628 0 0 1 4.882,-0.21a49.377,49.377 0 0 1 12.597,1.552a41.504,41.504 0 0 1 9.803,3.948q9.8,5.5 15.3,16.2q5.344,10.397 5.496,24.854a80.83,80.83 0 0 1 0.004,0.846zm-228,-45.8l29.8,0l-68.6,163.2l-29.8,0l24,-55.2l-44.4,-108l31.4,0l28.6,77.4l29,-77.4zm487.8,45.8l0,65l-28,0l0,-61.2a42.32,42.32 0 0 0 -0.694,-7.918q-1.446,-7.584 -5.906,-12.382a21.778,21.778 0 0 0 -12.6,-6.656a31.483,31.483 0 0 0 -5.4,-0.444a30.639,30.639 0 0 0 -7.705,0.917a21.753,21.753 0 0 0 -10.595,6.183a22.996,22.996 0 0 0 -5.228,9.265q-1.472,4.847 -1.472,11.035l0,61.2l-28,0l0,-110.8l28,0l0,13.8a38.616,38.616 0 0 1 14.029,-11.171a44.682,44.682 0 0 1 0.271,-0.129a43.501,43.501 0 0 1 16.527,-4.036a51.215,51.215 0 0 1 2.573,-0.064a51.006,51.006 0 0 1 14.572,1.984a39.794,39.794 0 0 1 17.428,10.516a41.074,41.074 0 0 1 10.263,18.622q1.937,7.353 1.937,16.278zm-748.4,65l-31.6,0l-22.8,-34.4l-20.2,34.4l-30,0l36.2,-55.6l-36.6,-55.2l31.6,0l22.6,34.2l20.4,-34.2l30,0l-36.4,55.2l36.8,55.6zm-328,-15.8l0,15.8l-28,0l0,-148l28,0l0,53.4a38.551,38.551 0 0 1 10.94,-10.669a47.317,47.317 0 0 1 3.96,-2.331q9.5,-5 21.7,-5a49.431,49.431 0 0 1 19.734,3.917a47.689,47.689 0 0 1 5.966,3.083q11.5,7 18.2,19.9a58.936,58.936 0 0 1 5.908,18.697a76.624,76.624 0 0 1 0.792,11.203q0,17 -6.7,30.1a53.238,53.238 0 0 1 -9.948,13.775a47.83,47.83 0 0 1 -8.252,6.525q-11.5,7.2 -25.7,7.2a53.23,53.23 0 0 1 -10.944,-1.077a41.012,41.012 0 0 1 -10.756,-3.823a44.569,44.569 0 0 1 -10.18,-7.258a39.383,39.383 0 0 1 -4.72,-5.442zm-49.2,-31.2l-81,0a34.616,34.616 0 0 0 1.704,8.425a24.801,24.801 0 0 0 6.696,10.375a25.59,25.59 0 0 0 16.698,6.766a33.208,33.208 0 0 0 1.502,0.034a28.103,28.103 0 0 0 9.256,-1.438q7.775,-2.699 12.151,-10.458a30.46,30.46 0 0 0 0.793,-1.504l30.2,0q-4.8,16 -18.4,26.3a50.281,50.281 0 0 1 -23.035,9.53a67.388,67.388 0 0 1 -10.365,0.77a61.781,61.781 0 0 1 -17.727,-2.47a54.045,54.045 0 0 1 -10.973,-4.63q-12.7,-7.1 -19.8,-20.1a57.795,57.795 0 0 1 -6.474,-20.259a73.689,73.689 0 0 1 -0.626,-9.741a71.56,71.56 0 0 1 1.696,-15.914a56.365,56.365 0 0 1 5.304,-14.286q7,-13 19.6,-20a55.466,55.466 0 0 1 20.076,-6.446a70.034,70.034 0 0 1 8.924,-0.554a63.006,63.006 0 0 1 16.731,2.152a54.036,54.036 0 0 1 11.569,4.648q12.5,6.8 19.4,19.3q6.9,12.5 6.9,28.7a77.375,77.375 0 0 1 -0.197,5.658a56.482,56.482 0 0 1 -0.603,5.142zm-336.2,-92.6l102.4,0l0,22.6l-37.2,0l0,117l-28,0l0,-117l-37.2,0l0,-22.6zm827.6,86l-23.4,0l0,53.6l-28,0l0,-139.6l51.4,0a78.512,78.512 0 0 1 12.37,0.924q7.007,1.119 12.853,3.591a46.244,46.244 0 0 1 2.377,1.085a43.269,43.269 0 0 1 10.108,6.771a36.21,36.21 0 0 1 6.992,8.629a42.292,42.292 0 0 1 5.561,18.388a51.46,51.46 0 0 1 0.139,3.812q0,11.2 -5.3,21a36.667,36.667 0 0 1 -10.944,12.29a47.747,47.747 0 0 1 -5.656,3.51a47.733,47.733 0 0 1 -11.89,4.307q-7.472,1.693 -16.61,1.693zm248.6,-34.2l-24.8,0l0,53.6a18.365,18.365 0 0 0 0.214,2.905q0.243,1.513 0.762,2.709a7.298,7.298 0 0 0 1.724,2.486a7.745,7.745 0 0 0 2.482,1.499q2.568,1.001 6.618,1.001l13,0l0,23.6l-17.6,0a52.655,52.655 0 0 1 -13.794,-1.646q-15.782,-4.295 -20.036,-19.792a49.035,49.035 0 0 1 -1.57,-12.962l0,-53.4l-13.2,0l0,-23l13.2,0l0,-27.4l28.2,0l0,27.4l24.8,0l0,23zm-551.872,87.097a62.091,62.091 0 0 0 17.872,2.503a71.102,71.102 0 0 0 4.495,-0.14a59.255,59.255 0 0 0 24.805,-6.96q13.1,-7.1 20.8,-20.1a53.204,53.204 0 0 0 5.559,-13.183a63.7,63.7 0 0 0 2.141,-16.817a70.766,70.766 0 0 0 -0.484,-8.375a56.043,56.043 0 0 0 -7.016,-21.625q-7.5,-13 -20.5,-20.1a56.487,56.487 0 0 0 -9.347,-4.061a62.167,62.167 0 0 0 -19.653,-3.039a69.989,69.989 0 0 0 -3.464,0.085a58.598,58.598 0 0 0 -25.536,7.015q-13,7.1 -20.5,20.1a54.046,54.046 0 0 0 -5.506,13.532a65.509,65.509 0 0 0 -1.994,16.468q0,17 7.3,30q7.3,13 20.1,20.1a54.857,54.857 0 0 0 10.928,4.597zm735.6,0a62.091,62.091 0 0 0 17.872,2.503a71.102,71.102 0 0 0 4.495,-0.14a59.255,59.255 0 0 0 24.805,-6.96q13.1,-7.1 20.8,-20.1a53.204,53.204 0 0 0 5.559,-13.183a63.7,63.7 0 0 0 2.141,-16.817a70.766,70.766 0 0 0 -0.484,-8.375a56.043,56.043 0 0 0 -7.016,-21.625q-7.5,-13 -20.5,-20.1a56.487,56.487 0 0 0 -9.347,-4.061a62.167,62.167 0 0 0 -19.653,-3.039a69.989,69.989 0 0 0 -3.464,0.085a58.598,58.598 0 0 0 -25.536,7.015q-13,7.1 -20.5,20.1a54.046,54.046 0 0 0 -5.506,13.532a65.509,65.509 0 0 0 -1.994,16.468q0,17 7.3,30q7.3,13 20.1,20.1a54.857,54.857 0 0 0 10.928,4.597zm-1081.528,-147.297l28,0l0,148l-28,0l0,-148zm-55.6,37.2l28,0l0,110.8l-28,0l0,-110.8zm321.2,55a41.04,41.04 0 0 0 -0.842,-8.508a30.9,30.9 0 0 0 -3.258,-8.792a30.13,30.13 0 0 0 -5.785,-7.435a26.898,26.898 0 0 0 -5.015,-3.665q-6.7,-3.8 -14.5,-3.8q-7.6,0 -14.3,3.9a28.321,28.321 0 0 0 -9.595,9.288a34.522,34.522 0 0 0 -1.205,2.012a32.258,32.258 0 0 0 -3.57,10.548a42.687,42.687 0 0 0 -0.53,6.852a41.121,41.121 0 0 0 0.901,8.804a31.543,31.543 0 0 0 3.199,8.596a30.797,30.797 0 0 0 5.783,7.551a27.316,27.316 0 0 0 5.017,3.749q6.7,3.9 14.3,3.9q7.8,0 14.5,-4q6.7,-4 10.8,-11.4a32.043,32.043 0 0 0 3.474,-10.059a43.519,43.519 0 0 0 0.626,-7.541zm98.2,33.2q7.6,0 14.3,-3.7a26.195,26.195 0 0 0 9.384,-8.878a32.467,32.467 0 0 0 1.316,-2.222a31.831,31.831 0 0 0 3.121,-8.766q0.769,-3.732 0.865,-8.003a54.714,54.714 0 0 0 0.014,-1.231a48.164,48.164 0 0 0 -0.894,-9.583q-1.143,-5.629 -3.75,-9.97a25.718,25.718 0 0 0 -3.656,-4.747a27.224,27.224 0 0 0 -19.74,-8.495a33.52,33.52 0 0 0 -0.56,-0.005a27.809,27.809 0 0 0 -11.649,2.399a27.188,27.188 0 0 0 -8.451,6.101q-7.167,7.52 -7.992,20.755a56.929,56.929 0 0 0 -0.108,3.545q0,11.462 4.158,19.083a25.72,25.72 0 0 0 3.742,5.217a25.852,25.852 0 0 0 18.784,8.481a33.091,33.091 0 0 0 1.116,0.019zm735.6,0q7.6,0 14.3,-3.7a26.195,26.195 0 0 0 9.384,-8.878a32.467,32.467 0 0 0 1.316,-2.222a31.831,31.831 0 0 0 3.121,-8.766q0.769,-3.732 0.865,-8.003a54.714,54.714 0 0 0 0.014,-1.231a48.164,48.164 0 0 0 -0.894,-9.583q-1.143,-5.629 -3.75,-9.97a25.718,25.718 0 0 0 -3.656,-4.747a27.224,27.224 0 0 0 -19.74,-8.495a33.52,33.52 0 0 0 -0.56,-0.005a27.809,27.809 0 0 0 -11.649,2.399a27.188,27.188 0 0 0 -8.451,6.101q-7.167,7.52 -7.992,20.755a56.929,56.929 0 0 0 -0.108,3.545q0,11.462 4.158,19.083a25.72,25.72 0 0 0 3.742,5.217a25.852,25.852 0 0 0 18.784,8.481a33.091,33.091 0 0 0 1.116,0.019zm-451.4,-94.2l-22.2,0l0,40.6l22.2,0q7.325,0 12.257,-2.113a16.643,16.643 0 0 0 4.943,-3.187a17.311,17.311 0 0 0 4.938,-8.808a26.398,26.398 0 0 0 0.662,-6.092q0,-19.942 -21.789,-20.39a49.277,49.277 0 0 0 -1.011,-0.01zm-571,51l52.6,0a25.276,25.276 0 0 0 -1.485,-8.346a21.414,21.414 0 0 0 -6.315,-8.954a26.948,26.948 0 0 0 -15.738,-6.385a35.08,35.08 0 0 0 -2.862,-0.115a28.361,28.361 0 0 0 -9.025,1.384a24.184,24.184 0 0 0 -8.475,4.916a25.377,25.377 0 0 0 -7.163,10.978a35.541,35.541 0 0 0 -1.537,6.522zm-124.593,-59.165a19.137,19.137 0 0 0 6.193,0.965a22.164,22.164 0 0 0 1.477,-0.049a16.734,16.734 0 0 0 10.823,-4.651a15.698,15.698 0 0 0 3.597,-5.093a16.403,16.403 0 0 0 1.303,-6.607a19.697,19.697 0 0 0 -0.005,-0.435a15.489,15.489 0 0 0 -4.895,-11.265a16.321,16.321 0 0 0 -6.107,-3.735a19.137,19.137 0 0 0 -6.193,-0.965a22.164,22.164 0 0 0 -1.477,0.048a16.734,16.734 0 0 0 -10.823,4.652a15.698,15.698 0 0 0 -3.597,5.093a16.403,16.403 0 0 0 -1.303,6.607a19.697,19.697 0 0 0 0.005,0.435a15.489,15.489 0 0 0 4.895,11.265a16.321,16.321 0 0 0 6.107,3.735z" vector-effect="non-scaling-stroke"/>
   </g>
  </g>
  <g>
   <!--!Font Awesome Free 6.7.2 by @fontawesome - https://fontawesome.com License - https://fontawesome.com/license/free Copyright 2025 Fonticons, Inc.-->
   <path fill="#ffffff" d="m663.31365,248.75836c-4.40011,-17.65756 -12.74316,-30.97217 -30.51501,-30.97217l-22.91483,0l0,27.08636c0,21.02907 -17.829,38.74378 -38.17234,38.74378l-61.03003,0c-16.68611,0 -30.51501,14.28606 -30.51501,31.02931l0,58.17282c0,16.57182 14.40034,26.28634 30.51501,31.02931c19.31475,5.65728 37.88662,6.68587 61.03003,0c15.3718,-4.45725 30.51501,-13.42889 30.51501,-31.02931l0,-23.2577l-60.97289,0l0,-7.77161l91.54504,0c17.77185,0 24.34344,-12.4003 30.51501,-30.97217c6.40015,-19.14331 6.11443,-37.54375 0,-62.05863zm-87.77353,116.28849c6.34301,0 11.48599,5.20012 11.48599,11.60028c0,6.4573 -5.14298,11.65742 -11.48599,11.65742c-6.28586,0 -11.48599,-5.25727 -11.48599,-11.65742c0.05714,-6.4573 5.20012,-11.60028 11.48599,-11.60028zm-67.65876,-89.08784l61.03003,0c16.97183,0 30.51501,-14.00033 30.51501,-31.02931l0,-58.22996c0,-16.57182 -13.94319,-28.97212 -30.51501,-31.77219c-20.45763,-3.37151 -42.68673,-3.20008 -61.03003,0.05714c-25.82919,4.57154 -30.51501,14.11462 -30.51501,31.77219l0,23.2577l61.08717,0l0,7.77161l-84.00201,0c-17.77185,0 -33.31508,10.68597 -38.17234,30.97217c-5.60013,23.2577 -5.82871,37.77233 0,62.05863c4.34296,18.05757 14.68607,30.97217 32.45792,30.97217l20.97193,0l0,-27.88638c0,-20.17191 17.42899,-37.94376 38.17234,-37.94376zm-3.82866,-81.48766c-6.34301,0 -11.48599,-5.20012 -11.48599,-11.60028c0.05714,-6.4573 5.14298,-11.65742 11.48599,-11.65742c6.28586,0 11.48599,5.25727 11.48599,11.65742s-5.14298,11.60028 -11.48599,11.60028z"/>
  </g>
 </g>

</svg>