<svg width="1965" height="453" viewBox="0 0 1965 453" fill="none" xmlns="http://www.w3.org/2000/svg">
  <path d="M 1934.415 0.189 L 30.589 0.189 C 13.853 0.189 0.285 13.757 0.285 30.494 L 0.285 422.506 C 0.285 439.242 13.853 452.81 30.589 452.81 L 1934.415 452.81 C 1951.145 452.81 1964.715 439.242 1964.715 422.506 L 1964.715 30.494 C 1964.715 13.757 1951.145 0.189 1934.415 0.189 Z" style="fill: rgb(244, 63, 94);"/>
  <g transform="matrix(0.8300480246543885, 0, 0, 0.8300480246543885, 158.70591735839844, 38.03668212890625)" style="">
    <path d="M 960.854 156.414 L 960.854 179.248 L 923.286 179.248 L 923.286 297.393 L 895.01 297.393 L 895.01 179.248 L 857.441 179.248 L 857.441 156.414 L 960.854 156.414 Z" style="fill: rgb(255, 255, 255);"/>
    <path d="M 978.317 167.434 C 975.014 164.273 973.374 160.327 973.374 155.624 C 973.374 150.917 975.014 146.974 978.317 143.813 C 981.62 140.655 985.754 139.06 990.744 139.06 C 995.733 139.06 999.87 140.655 1003.173 143.813 C 1006.476 146.974 1008.114 150.917 1008.114 155.624 C 1008.114 160.327 1006.476 164.273 1003.173 167.434 C 999.87 170.593 995.733 172.187 990.744 172.187 C 985.754 172.187 981.62 170.593 978.317 167.434 Z M 1004.669 185.516 L 1004.669 297.412 L 976.393 297.412 L 976.393 185.516 L 1004.669 185.516 Z" style="fill: rgb(255, 255, 255);"/>
    <path d="M 1055.784 147.928 L 1055.784 297.393 L 1027.508 297.393 L 1027.508 147.928 L 1055.784 147.928 Z" style="fill: rgb(255, 255, 255);"/>
    <path d="M 1181.816 249.94 L 1100.027 249.94 C 1100.692 258.018 1103.52 264.34 1108.51 268.926 C 1113.5 273.513 1119.631 275.794 1126.902 275.794 C 1137.404 275.794 1144.866 271.278 1149.335 262.25 L 1179.821 262.25 C 1176.589 273.014 1170.387 281.876 1161.238 288.814 C 1152.09 295.752 1140.852 299.222 1127.52 299.222 C 1116.756 299.222 1107.085 296.845 1098.531 292.046 C 1089.976 287.269 1083.322 280.497 1078.523 271.752 C 1073.745 263.01 1071.347 252.911 1071.347 241.457 C 1071.347 230.003 1073.699 219.713 1078.403 210.968 C 1083.109 202.226 1089.715 195.476 1098.198 190.772 C 1106.681 186.066 1116.448 183.69 1127.496 183.69 C 1138.546 183.69 1147.67 185.971 1156.082 190.557 C 1164.495 195.143 1171.03 201.632 1175.687 210.042 C 1180.344 218.454 1182.65 228.126 1182.65 239.032 C 1182.65 243.073 1182.388 246.708 1181.84 249.94 L 1181.816 249.94 Z M 1153.349 230.954 C 1153.207 223.684 1150.594 217.86 1145.484 213.489 C 1140.375 209.115 1134.102 206.93 1126.714 206.93 C 1119.702 206.93 1113.81 209.044 1109.033 213.298 C 1104.256 217.552 1101.335 223.422 1100.242 230.976 L 1153.349 230.976 L 1153.349 230.954 Z" style="fill: rgb(255, 255, 255);"/>
    <path d="M 1241.488 188.729 C 1247.878 185.355 1255.198 183.69 1263.395 183.69 C 1272.947 183.69 1281.596 186.044 1289.344 190.772 C 1297.091 195.476 1303.22 202.177 1307.711 210.876 C 1312.227 219.572 1314.483 229.624 1314.483 241.075 C 1314.483 252.529 1312.227 262.653 1307.711 271.469 C 1303.198 280.285 1297.067 287.127 1289.344 291.975 C 1281.596 296.823 1272.947 299.246 1263.395 299.246 C 1255.054 299.246 1247.737 297.606 1241.488 294.303 C 1235.215 291 1230.2 286.724 1226.445 281.473 L 1226.445 297.417 L 1198.169 297.417 L 1198.169 147.952 L 1226.445 147.952 L 1226.445 201.894 C 1230.081 196.498 1235.095 192.127 1241.488 188.753 L 1241.488 188.729 Z M 1281.479 223.564 C 1278.721 218.645 1275.086 214.914 1270.571 212.347 C 1266.058 209.783 1261.185 208.499 1255.934 208.499 C 1250.683 208.499 1246.001 209.805 1241.488 212.443 C 1236.972 215.056 1233.337 218.882 1230.579 223.85 C 1227.824 228.84 1226.445 234.685 1226.445 241.432 C 1226.445 248.183 1227.824 254.028 1230.579 258.993 C 1233.337 263.983 1236.972 267.784 1241.488 270.398 C 1246.001 273.036 1250.802 274.344 1255.934 274.344 C 1261.068 274.344 1266.058 272.989 1270.571 270.305 C 1275.086 267.618 1278.721 263.77 1281.479 258.781 C 1284.234 253.788 1285.613 247.872 1285.613 241.005 C 1285.613 234.137 1284.234 228.458 1281.479 223.539 L 1281.479 223.564 Z" style="fill: rgb(255, 255, 255);"/>
    <path d="M 1350.673 292.046 C 1342.048 287.269 1335.298 280.497 1330.379 271.752 C 1325.46 263.01 1323.013 252.911 1323.013 241.457 C 1323.013 230.003 1325.531 219.904 1330.594 211.159 C 1335.63 202.414 1342.547 195.642 1351.289 190.868 C 1360.034 186.091 1369.801 183.69 1380.589 183.69 C 1391.378 183.69 1401.12 186.091 1409.863 190.868 C 1418.608 195.642 1425.524 202.414 1430.56 211.159 C 1435.599 219.904 1438.141 230.003 1438.141 241.457 C 1438.141 252.911 1435.55 263.01 1430.372 271.752 C 1425.192 280.497 1418.18 287.269 1409.364 292.046 C 1400.548 296.823 1390.689 299.222 1379.78 299.222 C 1368.874 299.222 1359.322 296.845 1350.695 292.046 L 1350.673 292.046 Z M 1394.204 270.85 C 1398.72 268.354 1402.309 264.623 1405.017 259.634 C 1407.702 254.644 1409.056 248.586 1409.056 241.457 C 1409.056 230.81 1406.252 222.637 1400.668 216.909 C 1395.084 211.184 1388.242 208.333 1380.162 208.333 C 1372.082 208.333 1365.31 211.208 1359.867 216.909 C 1354.425 222.637 1351.695 230.81 1351.695 241.457 C 1351.695 252.101 1354.355 260.277 1359.679 266.002 C 1365.002 271.73 1371.703 274.581 1379.78 274.581 C 1384.89 274.581 1389.713 273.346 1394.229 270.85 L 1394.204 270.85 Z" style="fill: rgb(255, 255, 255);"/>
    <path d="M 1505.58 297.396 L 1482.553 262.656 L 1462.166 297.396 L 1431.868 297.396 L 1468.415 241.247 L 1431.465 185.499 L 1463.376 185.499 L 1486.188 220.051 L 1506.79 185.499 L 1537.088 185.499 L 1500.329 241.247 L 1537.491 297.396 L 1505.58 297.396 Z" style="fill: rgb(255, 255, 255);"/>
    <path d="M 754.02 148.029 L 754.02 306.072 C 754.02 319.546 744.918 331.378 731.873 334.847 L 614.156 366.262 C 609.76 367.426 605.244 368.02 600.729 368.02 C 596.216 368.02 591.654 367.426 587.28 366.262 L 469.563 334.847 C 456.542 331.378 447.44 319.546 447.44 306.072 L 447.44 148.029 C 447.44 134.556 456.542 122.699 469.563 119.23 L 587.28 87.839 C 591.676 86.675 596.191 86.081 600.729 86.081 C 605.269 86.081 609.784 86.675 614.156 87.839 L 731.873 119.23 C 744.896 122.699 754.02 134.556 754.02 148.029 Z M 739.122 306.072 L 739.122 148.029 C 739.122 141.281 734.56 135.365 728.049 133.605 L 610.329 102.217 C 604.056 100.53 597.404 100.53 591.131 102.217 L 473.389 133.629 C 466.879 135.365 462.339 141.281 462.339 148.029 L 462.339 306.072 C 462.339 312.795 466.879 318.712 473.389 320.472 L 591.131 351.885 C 594.268 352.716 597.5 353.144 600.729 353.144 C 603.961 353.144 607.171 352.716 610.329 351.885 L 728.049 320.472 C 734.56 318.736 739.122 312.795 739.122 306.072 Z" fill="#1E293B" style=""/>
    <path d="M 722.092 149.669 L 722.092 304.432 L 609.245 334.515 L 609.245 119.562 L 722.092 149.669 Z" fill="#F43F5E" style=""/>
    <path d="M 592.207 293.788 L 592.207 334.515 L 479.363 304.432 L 479.363 278.72 L 592.207 293.788 Z" fill="#1E293B" style=""/>
    <path d="M 592.207 235.541 L 592.207 276.6 L 479.363 261.536 L 479.363 235.541 L 592.207 235.541 Z" fill="#1E293B" style=""/>
    <path d="M 592.207 177.49 L 592.207 218.503 L 479.363 218.503 L 479.363 192.53 L 592.207 177.49 Z" fill="#1E293B" style=""/>
    <path d="M 592.207 119.562 L 592.207 160.314 L 479.363 175.332 L 479.363 149.669 L 592.207 119.562 Z" fill="#1E293B" style=""/>
    <path d="M 728.058 133.605 L 610.338 102.214 C 604.064 100.527 597.412 100.527 591.139 102.214 L 473.397 133.629 C 466.887 135.362 462.347 141.279 462.347 148.029 L 462.347 306.07 C 462.347 312.795 466.887 318.712 473.397 320.469 L 591.139 351.885 C 594.276 352.716 597.508 353.144 600.74 353.144 C 603.969 353.144 607.179 352.716 610.338 351.885 L 728.058 320.469 C 734.568 318.736 739.13 312.795 739.13 306.07 L 739.13 148.029 C 739.13 141.279 734.568 135.362 728.058 133.605 Z M 722.092 304.432 L 609.245 334.515 L 609.245 119.562 L 722.092 149.667 L 722.092 304.432 Z M 592.207 235.543 L 592.207 276.606 L 479.363 261.563 L 479.363 235.568 L 592.207 235.568 L 592.207 235.543 Z M 479.363 218.506 L 479.363 192.536 L 592.207 177.493 L 592.207 218.531 L 479.363 218.531 L 479.363 218.506 Z M 592.207 293.763 L 592.207 334.49 L 479.363 304.407 L 479.363 278.72 L 592.207 293.763 Z M 592.207 160.289 L 479.363 175.332 L 479.363 149.645 L 592.207 119.538 L 592.207 160.289 Z" fill="white" style=""/>
  </g>
</svg>
