<svg xmlns="http://www.w3.org/2000/svg" xmlns:xlink="http://www.w3.org/1999/xlink" version="1.1" width="1080" height="400" viewBox="0 -85 1080 400" xml:space="preserve">
<desc>Created with Fabric.js 5.2.4</desc>
<defs>
</defs>
<rect x="0" y="0" width="100%" height="100%" fill="transparent"></rect>
<g transform="matrix(1 0 0 1 540 200)" id="b7b9bc4f-d054-4c44-b4cd-487169b77d77"  >
<rect style="stroke: none; stroke-width: 1; stroke-dasharray: none; stroke-linecap: butt; stroke-dashoffset: 0; stroke-linejoin: miter; stroke-miterlimit: 4; fill: rgb(255,255,255); fill-rule: nonzero; opacity: 1; visibility: hidden;" vector-effect="non-scaling-stroke"  x="-540" y="-200" rx="0" ry="0" width="1080" height="400" />
</g>
<g transform="matrix(Infinity NaN NaN Infinity 0 0)" id="94d0b0e0-9b32-47f3-9680-f12473c49186"  >
</g>
<g transform="matrix(0.41 0 0 0.41 1080 400)"  >
<g style="" vector-effect="non-scaling-stroke"   >
		<g transform="matrix(1 0 0 1 0 135)"  >
<rect style="stroke: none; stroke-width: 1; stroke-dasharray: none; stroke-linecap: butt; stroke-dashoffset: 0; stroke-linejoin: miter; stroke-miterlimit: 4; fill: rgb(51,0,0); fill-rule: nonzero; opacity: 1;" vector-effect="non-scaling-stroke"  x="-400" y="-200" rx="0" ry="0" width="800" height="400" />
</g>
		<g transform="matrix(1 0 0 1 0 135)"  >
<radialGradient id="SVGID_a_3" gradientUnits="userSpaceOnUse" gradientTransform="matrix(1 0 0 1 -400 -200)"  cx="396" cy="281" r="514" fx="396" fy="281">
<stop offset="0%" style="stop-color:rgb(221,17,136);stop-opacity: 1"/>
<stop offset="100%" style="stop-color:rgb(51,0,0);stop-opacity: 1"/>
</radialGradient>
<rect style="stroke: none; stroke-width: 1; stroke-dasharray: none; stroke-linecap: butt; stroke-dashoffset: 0; stroke-linejoin: miter; stroke-miterlimit: 4; fill: url(#SVGID_a_3); fill-rule: nonzero; opacity: 1;" vector-effect="non-scaling-stroke"  x="-400" y="-200" rx="0" ry="0" width="800" height="400" />
</g>
		<g transform="matrix(1 0 0 1 -132.5 -4)"  >
<linearGradient id="SVGID_b_4" gradientUnits="userSpaceOnUse" gradientTransform="matrix(1 0 0 1 -267.5 -61)"  x1="400" y1="148" x2="400" y2="333">
<stop offset="0%" style="stop-color:rgb(255,170,51);stop-opacity: 0"/>
<stop offset="100%" style="stop-color:rgb(255,170,51);stop-opacity: 0.5"/>
</linearGradient>
<circle style="stroke: none; stroke-width: 1; stroke-dasharray: none; stroke-linecap: butt; stroke-dashoffset: 0; stroke-linejoin: miter; stroke-miterlimit: 4; fill: url(#SVGID_b_4); fill-rule: nonzero; opacity: 1;" vector-effect="non-scaling-stroke"  cx="0" cy="0" r="300" />
</g>
		<g transform="matrix(1 0 0 1 132.5 -4)"  >
<linearGradient id="SVGID_b_5" gradientUnits="userSpaceOnUse" gradientTransform="matrix(1 0 0 1 -532.5 -61)"  x1="400" y1="148" x2="400" y2="333">
<stop offset="0%" style="stop-color:rgb(255,170,51);stop-opacity: 0"/>
<stop offset="100%" style="stop-color:rgb(255,170,51);stop-opacity: 0.5"/>
</linearGradient>
<circle style="stroke: none; stroke-width: 1; stroke-dasharray: none; stroke-linecap: butt; stroke-dashoffset: 0; stroke-linejoin: miter; stroke-miterlimit: 4; fill: url(#SVGID_b_5); fill-rule: nonzero; opacity: 1;" vector-effect="non-scaling-stroke"  cx="0" cy="0" r="300" />
</g>
		<g transform="matrix(1 0 0 1 0 -35)"  >
<linearGradient id="SVGID_b_6" gradientUnits="userSpaceOnUse" gradientTransform="matrix(1 0 0 1 -400 -30)"  x1="400" y1="148" x2="400" y2="333">
<stop offset="0%" style="stop-color:rgb(255,170,51);stop-opacity: 0"/>
<stop offset="100%" style="stop-color:rgb(255,170,51);stop-opacity: 0.5"/>
</linearGradient>
<circle style="stroke: none; stroke-width: 1; stroke-dasharray: none; stroke-linecap: butt; stroke-dashoffset: 0; stroke-linejoin: miter; stroke-miterlimit: 4; fill: url(#SVGID_b_6); fill-rule: nonzero; opacity: 1;" vector-effect="non-scaling-stroke"  cx="0" cy="0" r="300" />
</g>
</g>
</g>
<g transform="matrix(1.78 0 0 3.31 540 68.31)"  >
<g style=""   >
		<g transform="matrix(1 0 0 1 0 0)"  >
<rect style="stroke: none; stroke-width: 1; stroke-dasharray: none; stroke-linecap: butt; stroke-dashoffset: 0; stroke-linejoin: miter; stroke-miterlimit: 4; fill: rgb(51,0,0); fill-rule: nonzero; opacity: 1;" vector-effect="non-scaling-stroke"  x="-400" y="-200" rx="0" ry="0" width="800" height="400" />
</g>
		<g transform="matrix(1 0 0 1 0 0)"  >
<radialGradient id="SVGID_a_8" gradientUnits="userSpaceOnUse" gradientTransform="matrix(1 0 0 1 -400 -200)"  cx="396" cy="281" r="514" fx="396" fy="281">
<stop offset="0%" style="stop-color:rgb(221,17,136);stop-opacity: 1"/>
<stop offset="100%" style="stop-color:rgb(51,0,0);stop-opacity: 1"/>
</radialGradient>
<rect style="stroke: none; stroke-width: 1; stroke-dasharray: none; stroke-linecap: butt; stroke-dashoffset: 0; stroke-linejoin: miter; stroke-miterlimit: 4; fill: url(#SVGID_a_8); fill-rule: nonzero; opacity: 1;" vector-effect="non-scaling-stroke"  x="-400" y="-200" rx="0" ry="0" width="800" height="400" />
</g>
		<g transform="matrix(1 0 0 1 -132.5 -139)"  >
<linearGradient id="SVGID_b_9" gradientUnits="userSpaceOnUse" gradientTransform="matrix(1 0 0 1 -267.5 -61)"  x1="400" y1="148" x2="400" y2="333">
<stop offset="0%" style="stop-color:rgb(255,170,51);stop-opacity: 0"/>
<stop offset="100%" style="stop-color:rgb(255,170,51);stop-opacity: 0.5"/>
</linearGradient>
<circle style="stroke: none; stroke-width: 1; stroke-dasharray: none; stroke-linecap: butt; stroke-dashoffset: 0; stroke-linejoin: miter; stroke-miterlimit: 4; fill: url(#SVGID_b_9); fill-rule: nonzero; opacity: 1;" vector-effect="non-scaling-stroke"  cx="0" cy="0" r="300" />
</g>
		<g transform="matrix(1 0 0 1 132.5 -139)"  >
<linearGradient id="SVGID_b_10" gradientUnits="userSpaceOnUse" gradientTransform="matrix(1 0 0 1 -532.5 -61)"  x1="400" y1="148" x2="400" y2="333">
<stop offset="0%" style="stop-color:rgb(255,170,51);stop-opacity: 0"/>
<stop offset="100%" style="stop-color:rgb(255,170,51);stop-opacity: 0.5"/>
</linearGradient>
<circle style="stroke: none; stroke-width: 1; stroke-dasharray: none; stroke-linecap: butt; stroke-dashoffset: 0; stroke-linejoin: miter; stroke-miterlimit: 4; fill: url(#SVGID_b_10); fill-rule: nonzero; opacity: 1;" vector-effect="non-scaling-stroke"  cx="0" cy="0" r="300" />
</g>
		<g transform="matrix(1 0 0 1 0 -170)"  >
<linearGradient id="SVGID_b_11" gradientUnits="userSpaceOnUse" gradientTransform="matrix(1 0 0 1 -400 -30)"  x1="400" y1="148" x2="400" y2="333">
<stop offset="0%" style="stop-color:rgb(255,170,51);stop-opacity: 0"/>
<stop offset="100%" style="stop-color:rgb(255,170,51);stop-opacity: 0.5"/>
</linearGradient>
<circle style="stroke: none; stroke-width: 1; stroke-dasharray: none; stroke-linecap: butt; stroke-dashoffset: 0; stroke-linejoin: miter; stroke-miterlimit: 4; fill: url(#SVGID_b_11); fill-rule: nonzero; opacity: 1;" vector-effect="non-scaling-stroke"  cx="0" cy="0" r="300" />
</g>
</g>
</g>
<g transform="matrix(0.29 0 0 0.29 147.25 30.42)" id="5224a9cf-3890-4f7c-a261-a40ec4b6ca8d"  >
<path style="stroke: rgb(0,0,0); stroke-width: 0; stroke-dasharray: none; stroke-linecap: butt; stroke-dashoffset: 0; stroke-linejoin: miter; stroke-miterlimit: 4; fill: rgb(255,255,255); fill-rule: nonzero; opacity: 1;" vector-effect="non-scaling-stroke"  transform=" translate(-320, -256)" d="M 256 64 L 384 64 L 384 128 L 256 128 L 256 64 z M 240 0 C 213.5 0 192 21.5 192 48 L 192 144 C 192 170.5 213.5 192 240 192 L 288 192 L 288 224 L 32 224 C 14.3 224 0 238.3 0 256 C 0 273.7 14.3 288 32 288 L 128 288 L 128 320 L 80 320 C 53.5 320 32 341.5 32 368 L 32 464 C 32 490.5 53.5 512 80 512 L 240 512 C 266.5 512 288 490.5 288 464 L 288 368 C 288 341.5 266.5 320 240 320 L 192 320 L 192 288 L 448 288 L 448 320 L 400 320 C 373.5 320 352 341.5 352 368 L 352 464 C 352 490.5 373.5 512 400 512 L 560 512 C 586.5 512 608 490.5 608 464 L 608 368 C 608 341.5 586.5 320 560 320 L 512 320 L 512 288 L 608 288 C 625.7 288 640 273.7 640 256 C 640 238.3 625.7 224 608 224 L 352 224 L 352 192 L 400 192 C 426.5 192 448 170.5 448 144 L 448 48 C 448 21.5 426.5 0 400 0 L 240 0 z M 96 448 L 96 384 L 224 384 L 224 448 L 96 448 z M 416 384 L 544 384 L 544 448 L 416 448 L 416 384 z" stroke-linecap="round" />
</g>
</svg>